<?xml version="1.0" encoding="UTF-8"?>
<svg id="Capa_2" data-name="Capa 2" xmlns="http://www.w3.org/2000/svg" viewBox="0 0 682.94 214.33">
  <defs>
    <style>
      .cls-1 {
        fill: #fff;
      }

      .cls-2 {
        fill: #00a3df;
      }
    </style>
  </defs>
  <g id="Capa_1-2" data-name="Capa 1">
    <g>
      <path class="cls-1" d="M292.53,98.28c-2.57,2.66-10.32,9.93-17.33,9.93-6.51,0-1.39-15.47-3.95-15.47,0,0,3.13-11.41-8.01-11.41-12.06,0-28.17,17.63-28.62,29.52-4.75,4.63-10.16,9.18-13.03,9.18-3.16,0,6.61-22.84-1.42-22.84-4.26,0-11.26,6.59-11.26,6.59,0,0,4.68-13.66-3.77-13.66-15.59,0-40.5,40.74-48.25,40.74-4.16,0,2.98-17.84,3.99-20.33.08-.19.05-.39-.08-.55-.52-.68-2.02-2.44-3.72-2.44-8.61,0-36.54,43.8-44.23,43.8-2.96,0,1.57-11.9,1.57-16.83,0-2.21-4.18-4.35-6.04-4.35-6.29,0-15.2,9.22-20.83,15.91.69-2.81,1.46-5.71,2.28-8.67,36.07-37.49,66.54-81.8,42.75-81.8-21.24,0-41.49,43.52-51.48,78.26-22.62,23.5-46.78,43.76-59.25,43.76-31.62,0,21.54-130.29,65.22-130.29,11.06,0-6.13,38.13-34.47,39.03-.46.01-.72.52-.45.89,1.35,1.9,5.1,6.22,11.04,6.22,26.98,0,52.46-55.79,25.95-55.79-57.38,0-123.49,151.02-68.52,151.02,11.18,0,33.77-16.82,56.38-38.49-1.54,7.41-2.38,13.78-2.38,18.35,0,2.44,5.79,4.05,7.81,4.53.35.09.68-.17.69-.53.05-2.48.34-5.5.85-8.93,4.64-6.89,15.35-21.89,20.49-21.89.67,0-7.42,20.62,3.01,20.62,14.16,0,40.68-38.17,40.68-38.17,0,0-6.2,17.02,4.79,17.02,15.39,0,41.05-42.05,49.71-42.05l-17.25,30.69c-.2.37-.04.84.35,1.01,0,0,.6.39,1.73.89,4.75,2.1,7.58.08,9.35-3.3,4.81-9.22,13.33-19.35,16.85-19.35.85,0-6.42,20.96,2.13,20.96,6.76,0,15.02-6.38,20.55-11.5,1.3,2.34,3.36,4.05,6.28,4.05,11.3,0,21.29-13.57,21.29-13.57,0,0,.06,7.48,7.09,7.97,4.76.33,13.04-3.52,17.12-6.5,1.72-1.26,3.3-2.69,3.81-4.76l1.16-7.05c.08-.33-.33-.62-.57-.38M131.07,62.73c7.99,0-10.51,27.05-35.06,54.91,9.75-28.02,23.4-54.91,35.06-54.91M263.37,96.37s-11.6,18.15-18.82,18.15c-4.59,0,6.12-24.54,16.31-24.54,4.5,0,2.52,6.4,2.52,6.4"/>
      <path class="cls-1" d="M160.47,100c5.81,0,11.54-4.75,11.54-7.12,0-1.91-1.18-6.19-3.2-6.19-10.14,0-11.85,13.3-8.34,13.3"/>
      <path class="cls-1" d="M372.66,97.26c4.3-3.68,8.48-7.75,12.42-12.13,4.36.65,7.83,1.27,10.17,1.76,2.51.52,5.1-.32,6.83-2.22l3.79-3.79c.19-.2.09-.53-.18-.6-1.62-.38-6.89-1.44-14.33-2.66,12.75-16.42,21.77-36.09,21.77-55.49,0-9.22-1.39-21.58-12.88-21.58-15.31,0-80.9,20.71-80.9,31.22,0,12.89,46.02-3.67,46.66,32.11,0,.3.35.47.59.28l5.14-4.51c1.92-1.58,2.96-4.05,2.59-6.51-3.52-23.42-36.92-23.26-36.92-23.26,0,0,48.07-20.9,61.37-20.9,3.86,0,5.02,2.57,5.02,6.95,0,22.03-9.63,43.4-22.82,60.1-12.17-1.71-27.24-3.33-41.68-3.6-2.34-.04-4.57,1.02-5.98,2.89l-3.89,4.97c-.18.24,0,.58.29.58,16.53.04,32.36,1.34,44.68,2.82-3.68,3.92-7.54,7.48-11.47,10.6-8.59-2.34-17.31-3.91-25.2-3.91-23.49,0-33.42,27.4-8.14,27.4,10.02,0,22.45-5.23,34.64-13.92,15.44,4.76,29.51,11.3,33.85,13.7,2.07,1.14,4.56,1.23,6.69.21l6.22-2.99c.26-.12.28-.49.03-.64-2.51-1.56-19.14-10.44-38.36-16.89M329.38,108.91c-7.94,0-3.77-10.43,5.54-10.43,5.68,0,12.05.96,18.52,2.46-8.43,5.09-16.79,7.97-24.05,7.97"/>
      <path class="cls-1" d="M682.35,51.65c-2.01,1.74-9.81,6.85-15.19,6.85s1.77-9.88,1.77-13.9c0-7.88-5.57-9.39-10.53-9.39-12.59,0-24.51,15.7-26.94,25.03-.35,1.33-.58,2.72-.68,4.09-3.77,3.09-9.23,6.46-15.1,6.46-4.09,0-7.38-1.63-9.68-4.09,21.39-17.83,37.58-45.74,37.58-58.65,0-4.66-2.78-8.05-7.32-8.05-19.65,0-42.76,40.11-42.76,53.85,0,3.74.38,7.86,1.55,11.66-8.2,6.12-16.91,10.17-25.39,10.17-2.49,0-4.51-1.13-5.96-2.97,19.96-17.47,39.4-47.02,39.4-57.93,0-4.25-3.22-7.69-7.84-7.69-12.78,0-42.45,31.89-42.45,58.29,0,2.55.3,4.76.83,6.67-4.44,3.58-8.56,5.79-11.9,5.79-6.3,0,.41-21.91,1.27-24.63.06-.17.02-.37-.09-.51-.57-.74-2.44-2.99-4.17-2.99-8.03,0-28.52,37.56-38.51,37.56-3.84,0,10.85-22.87,14.39-26.67.41-.43.14-1.13-.45-1.2-9.52-1.09-19.91-12.03-21.62-13.9-.14-.15-.37-.15-.52-.01l-1.89,1.82c-2.56,2.48-2.39,6.63.37,8.89-1.35,5.14-18.31,33.24-25.62,33.24-.29,0-.56-.26-.56-.61,0-1.65,10.27-23.27,17.65-29.91.47-.42.2-1.16-.43-1.21-10.01-.74-19.56-10.57-21.53-12.7-.13-.14-.35-.15-.5-.02l-1.58,1.4c-2.68,2.38-2.7,6.56-.04,8.97.11.1.17.15.17.15,0,1.56-5.51,8.56-13.15,14.77-.81-3.86-3.49-6.4-8.64-6.4-2.53,0-5.13.45-7.68,1.21.44-.88.75-1.5.88-1.74.07-.13.05-.28-.04-.4l-2.14-2.55c-.78-.93-1.9-1.3-2.99-1.3-3.52,0-7.96,6.62-11.3,14.98-3.19,2.98-5.2,6.03-5.2,8.24,0,1.63.57,2.84,1.53,3.76-2.41,11.21-1.63,21.67,6.37,21.67,11.75,0,23.66-14.1,27.89-26.31,12.56-8.55,20.84-21.51,20.84-21.51l4.31,2.56s-13.85,20.78-13.85,28.24c0,4.01,3.97,8.39,6.63,8.39,15.61,0,35.51-37.32,35.51-37.32l3.79,2.5s-10.37,18.4-10.37,24.42c0,3.58,4.54,7.51,6.63,7.51,17.44,0,31.85-29,34.71-29,0,0-6.39,18.91,6.01,18.91,5.66,0,12.28-3.08,19.09-8,3.1,3.39,7.6,4.66,12.22,4.66,9.94,0,20-4.1,29.36-10.44,2.97,3.83,7.59,6.43,14.64,6.43,7.71,0,14.51-3.96,18.68-7.08,1,2.12,2.71,3.52,5.31,3.52,8.93,0,20.07-11.48,20.07-11.48,0,0,2.55,3.45,9.38,3.45,4.9,0,9.73-2.43,12.77-4.35,2.01-1.27,3.27-3.43,3.38-5.8l.23-5.1c.01-.32-.36-.5-.6-.29M435.82,76.5c-4.46,2.44-9.15,4.08-13.62,4.08,0-3.6,6.86-8.43,10.84-8.43,2.22,0,3,1.75,2.77,4.34M418.24,98.36c-2.19,0-1.53-4.18.27-9.64,1.31.07,2.64.08,3.94.08,3.16,0,6.23-.53,9.18-1.43-3.52,5.78-8.68,10.99-13.38,10.99M593.36,15.44c.35,0,.71.23.71.89,0,4.92-16.98,32.27-32.97,48.81-.02-.38-.04-.76-.04-1.15,0-15.37,21.94-48.54,32.29-48.54M602.2,56.97c0-21.93,25.3-48.99,31.79-48.99.75,0,1.17.63,1.17,1.73,0,7.37-14.27,32.63-32.75,49.67-.13-.79-.21-1.6-.21-2.4M640.54,65.12c-3.34,0,2.99-12.86,9.72-18.71,5.52-4.8,11.33-4.36,11.33-2.21,0,2.95-14.89,20.92-21.05,20.92"/>
      <path class="cls-1" d="M543.83,43.07c3.35,0,9.1-6.07,9.1-8.11,0-1.64-2.74-5.26-4.48-5.26-8.71,0-9.31,13.37-4.62,13.37"/>
      <path class="cls-2" d="M566.33,123.5h-.19c-28.95,1.94-62.04,6.87-152.92,20.31-26.93,3.98-55.03,8.26-82.21,12.4-68.78,10.47-230.9,41.4-300.06,52-.56.09-.81.75-.44,1.18,2.61,3.13,7.66,4.93,14.43,4.93.82,0,1.67-.03,2.54-.08,35.69-2.23,207.62-36.51,292.42-49.33,24.59-3.72,50.01-7.56,74.4-11.17l20.23-2.99c80.98-11.99,93.44-13.87,122.09-16.17,2.63-.21,3.91-2.21,4.59-3.28l.22-.35c.9-1.39,4.9-1.45,6.28-2.59.58-.48,1.09-1.28,1.09-2.36,0-1.45-1.03-2.5-2.46-2.5"/>
    </g>
  </g>
</svg>