<?xml version="1.0" encoding="UTF-8"?>
<svg id="Capa_2" data-name="Capa 2" xmlns="http://www.w3.org/2000/svg" viewBox="0 0 284.02 283.27">
  <defs>
    <style>
      .cls-1 {
        fill: #f7e300;
      }

      .cls-2 {
        fill: #fff;
        opacity: .7;
      }
    </style>
  </defs>
  <g id="Capa_1-2" data-name="Capa 1">
    <g>
      <circle class="cls-2" cx="141.55" cy="141.59" r="115"/>
      <path class="cls-1" d="M141.55,20.02c32.88,0,62.76,13.1,84.71,34.34l2.83-2.83c-20.01-19.39-46.42-32.21-75.71-34.95L141.55,0l-11.82,16.58c-29.29,2.74-55.7,15.56-75.71,34.95l2.83,2.83c21.95-21.24,51.82-34.34,84.71-34.34Z"/>
      <path class="cls-1" d="M141.55,263.77c-32.88,0-62.76-13.1-84.71-34.34l-2.83,2.83c20.1,19.48,46.66,32.33,76.11,34.99l11.42,16.02,11.42-16.02c29.45-2.66,56.01-15.51,76.11-34.99l-2.83-2.83c-21.95,21.24-51.82,34.34-84.71,34.34Z"/>
      <path class="cls-1" d="M266.65,129.21c-2.85-29.07-15.64-55.27-34.91-75.15l-2.83,2.83c21.24,21.95,34.34,51.82,34.34,84.71s-13.1,62.76-34.34,84.71l2.83,2.83c19.27-19.88,32.05-46.08,34.91-75.15l17.37-12.38-17.37-12.38Z"/>
      <path class="cls-1" d="M53.85,56.89l-2.83-2.83c-19.48,20.1-32.32,46.65-34.99,76.1L0,141.59l16.03,11.43c2.67,29.45,15.51,56,34.99,76.1l2.83-2.83c-21.24-21.95-34.34-51.82-34.34-84.71s13.1-62.76,34.34-84.71Z"/>
    </g>
  </g>
</svg>